<svg width="392" height="243" viewBox="0 0 392 243" fill="none" xmlns="http://www.w3.org/2000/svg">
<g clip-path="url(#clip0_9_2)">
<path opacity="0.1" d="M392 156.073C392.007 162.657 391.217 169.217 389.647 175.608C389.119 177.761 388.506 179.87 387.807 181.934C386.952 184.481 385.961 186.981 384.838 189.42C384.272 190.655 383.674 191.864 383.044 193.05C383.054 199.801 381.675 206.481 378.994 212.668C374.146 223.769 365.503 232.744 354.638 237.959C347.845 241.225 340.421 242.943 332.895 242.99H74.415C62.9147 243.015 51.6131 239.97 41.659 234.165L41.506 234.078C40.0882 233.242 38.7058 232.356 37.359 231.421C34.3288 229.312 31.4818 226.946 28.8489 224.351C25.2852 220.841 22.145 216.92 19.4934 212.668C13.2656 202.702 9.96651 191.162 9.97808 179.385C3.67117 168.232 -0.00646973 154.872 -0.00646973 140.517C-0.00646973 122.404 5.83782 105.881 15.4396 93.3736C17.4414 90.7605 19.6341 88.3017 21.9995 86.0179C24.3333 83.7579 26.8418 81.6885 29.5012 79.8294C31.6289 78.3404 33.8526 76.9957 36.1576 75.8044C37.1194 75.3113 38.0846 74.8451 39.0664 74.4124C39.9284 74.0267 40.8004 73.6678 41.6823 73.329C42.7407 72.9243 43.8124 72.552 44.8974 72.2121C45.9824 71.8722 47.0529 71.5748 48.1091 71.3199C49.6622 70.9375 51.242 70.6267 52.8484 70.3874C54.1797 70.1895 55.5109 70.052 56.8422 69.948C57.9006 69.8675 58.9689 69.8239 60.0439 69.8105H60.6264C61.8112 69.8105 62.9894 69.8574 64.1576 69.9379C64.2807 69.6897 64.4138 69.4382 64.537 69.1933C65.0029 68.2977 65.4855 67.4055 65.9714 66.5334C65.9703 66.5257 65.9703 66.5178 65.9714 66.51C66.0546 66.3557 66.1378 66.2048 66.2244 66.0572C66.6171 65.3427 67.0265 64.635 67.4458 63.934C67.6388 63.5985 67.8286 63.2833 68.0249 62.968C68.0665 62.8896 68.112 62.8135 68.1614 62.7399C68.3611 62.4045 68.5641 62.069 68.7704 61.7336C69.7977 60.0789 70.8661 58.4532 71.9755 56.8566L72.2584 56.4474C72.4314 56.1992 72.5912 55.9577 72.7842 55.7095C73.2435 55.0622 73.7161 54.4115 74.192 53.7742C74.5249 53.318 74.8577 52.8652 75.2171 52.4325C76.0824 51.3144 76.97 50.1964 77.8797 49.0783C78.7894 47.9603 79.7346 46.8567 80.7153 45.7677C80.8484 45.6168 80.9815 45.4692 81.1213 45.3216L82.5424 43.7586C82.6123 43.6848 82.6722 43.6177 82.7388 43.5506C82.9085 43.3662 83.0716 43.1817 83.2547 43.0039C84.0168 42.1888 84.799 41.3905 85.5844 40.5956C89.5817 36.5832 93.8401 32.8439 98.3313 29.4027C98.5077 29.2618 98.6875 29.1277 98.8639 28.9935C99.7092 28.3529 100.568 27.7189 101.427 27.095C106.15 23.6803 111.087 20.5768 116.207 17.804C116.56 17.5994 116.919 17.4082 117.282 17.2204C121.872 14.7728 126.593 12.5826 131.423 10.6596C134.056 9.60972 136.749 8.62359 139.458 7.72132C141.262 7.12428 143.072 6.55742 144.906 6.02411C147.773 5.19227 150.659 4.44653 153.566 3.78687C162.129 1.85046 170.841 0.654262 179.606 0.211319C182.268 0.074916 184.961 0.00447922 187.683 6.98428e-06C200.819 -0.0175199 213.905 1.65062 226.623 4.96419C226.754 5.16446 226.934 5.32773 227.146 5.43863C227.357 5.54953 227.593 5.60442 227.831 5.59813H228.949C229.435 5.73229 229.918 5.86646 230.404 6.00734C233.117 6.79445 235.792 7.65424 238.428 8.5867L239.093 8.8282C245.599 11.1597 251.929 13.9621 258.034 17.2136C263.537 20.1377 268.836 23.4369 273.893 27.0883C274.672 27.6518 275.439 28.2198 276.196 28.7923C277.115 28.1997 278.049 27.6317 278.998 27.0883C282.666 24.9834 286.561 23.3099 290.607 22.1007C299.067 19.5777 308.018 19.2249 316.647 21.0743C327.713 23.439 337.731 29.3088 345.822 37.6573C349.116 41.0732 352.048 44.8255 354.571 48.8536C354.755 49.142 354.938 49.4339 355.114 49.729C357.282 53.2942 359.146 57.0386 360.685 60.9219C360.742 61.0662 360.799 61.2003 360.848 61.3412C362.269 64.9775 363.415 68.7169 364.276 72.5274C364.316 72.7219 364.363 72.9131 364.403 73.1076C365.208 76.7953 365.756 80.5355 366.04 84.3005C366.04 84.4347 366.04 84.5722 366.067 84.7131C366.207 86.6608 366.278 88.6285 366.28 90.6164C366.28 92.3942 366.22 94.1585 366.11 95.9093C366.11 96.1005 366.084 96.2984 366.067 96.4963C366.037 97.0028 365.994 97.5026 365.951 98.0124C368.492 100.079 370.871 102.341 373.066 104.778C374.036 105.844 374.974 106.951 375.882 108.098C378.646 111.59 381.075 115.338 383.137 119.291C388.765 129.998 392 142.593 392 156.073Z" fill="#1E02BE"/>
<path opacity="0.1" d="M354.392 236.718C354.392 239.009 346.56 241.155 332.895 243H74.4148C62.9145 243.025 51.6128 239.98 41.6588 234.175L41.5057 234.088C45.433 232.646 52.522 231.301 62.1704 230.086L62.6031 230.033C66.9297 229.499 71.7656 228.993 77.0507 228.513C77.1839 228.513 77.3203 228.493 77.4534 228.476C81.6469 228.101 86.1078 227.749 90.8361 227.42C90.9858 227.42 91.1323 227.393 91.282 227.386C93.1059 227.254 94.9674 227.129 96.8667 227.011L97.5989 226.964C111.428 226.098 127.147 225.407 144.193 224.951H144.213C146.601 224.884 149.014 224.825 151.452 224.773C154.164 224.709 156.908 224.652 159.686 224.602C161.806 224.555 163.953 224.522 166.106 224.488H166.156C175.871 224.341 185.909 224.267 196.173 224.267C221.554 224.267 245.543 224.733 266.8 225.572H266.86C270.129 225.699 273.337 225.84 276.465 225.984L279.128 226.112C282.658 226.282 286.097 226.464 289.445 226.658C328.818 228.916 354.392 232.582 354.392 236.718Z" fill="#6C63FF"/>
<g opacity="0.2">
<path d="M226.41 222.727C226.399 223.089 226.358 223.449 226.287 223.804C223.97 223.433 221.64 223.097 219.297 222.798C219.297 222.704 219.297 222.607 219.297 222.509C219.319 221.504 219.606 220.522 220.129 219.665C220.815 218.572 221.857 217.887 223.005 217.924C224.153 217.961 225.148 218.709 225.764 219.839C226.23 220.727 226.453 221.724 226.41 222.727Z" fill="#3F3D56"/>
<path d="M226.601 216.996C226.682 214.402 225.155 212.248 223.189 212.185C221.223 212.123 219.563 214.175 219.482 216.769C219.401 219.363 220.928 221.517 222.894 221.579C224.86 221.642 226.52 219.59 226.601 216.996Z" fill="#3F3D56"/>
<path d="M226.782 211.253C226.864 208.659 225.336 206.506 223.37 206.443C221.404 206.38 219.745 208.432 219.664 211.026C219.582 213.62 221.11 215.774 223.076 215.837C225.042 215.899 226.701 213.847 226.782 211.253Z" fill="#3F3D56"/>
<path d="M226.961 205.511C227.042 202.917 225.514 200.763 223.549 200.7C221.583 200.638 219.923 202.69 219.842 205.284C219.761 207.878 221.288 210.032 223.254 210.094C225.22 210.157 226.879 208.105 226.961 205.511Z" fill="#3F3D56"/>
<path d="M227.139 199.768C227.22 197.174 225.693 195.021 223.727 194.958C221.761 194.895 220.102 196.947 220.02 199.541C219.939 202.135 221.466 204.289 223.432 204.352C225.398 204.414 227.058 202.362 227.139 199.768Z" fill="#3F3D56"/>
<path d="M211.466 159.924C210.997 159.284 210.575 158.612 210.201 157.911L219.607 156.66L209.482 156.415C208.579 154.256 208.122 151.933 208.14 149.589C208.158 147.245 208.65 144.93 209.586 142.784L222.938 150.314L210.707 140.641C211.941 138.629 213.573 136.896 215.502 135.549C217.43 134.202 219.613 133.27 221.915 132.812C224.217 132.354 226.588 132.378 228.879 132.885C231.171 133.391 233.335 134.369 235.235 135.756C237.135 137.143 238.731 138.91 239.923 140.946C241.115 142.983 241.878 145.245 242.164 147.592C242.449 149.939 242.252 152.321 241.583 154.587C240.914 156.854 239.789 158.957 238.278 160.766C239.007 161.76 239.626 162.832 240.125 163.962L227.781 169.933L240.871 165.965C241.695 168.706 241.828 171.611 241.257 174.417C240.686 177.223 239.43 179.841 237.602 182.034C239.503 184.633 240.639 187.718 240.882 190.937C241.124 194.156 240.463 197.379 238.974 200.237C237.484 203.095 235.227 205.473 232.46 207.099C229.693 208.725 226.528 209.533 223.326 209.431C220.124 209.329 217.016 208.322 214.356 206.523C211.696 204.725 209.592 202.208 208.284 199.262C206.976 196.315 206.518 193.056 206.961 189.859C207.404 186.662 208.731 183.655 210.79 181.183C208.52 178.077 207.351 174.293 207.472 170.437C207.593 166.582 208.996 162.879 211.456 159.924H211.466Z" fill="#27BD09"/>
<path opacity="0.1" d="M241.596 171.523C241.48 175.38 240.072 179.085 237.602 182.034C239.503 184.633 240.639 187.718 240.882 190.937C241.124 194.156 240.463 197.379 238.974 200.237C237.484 203.095 235.227 205.473 232.46 207.099C229.693 208.725 226.528 209.533 223.326 209.431C220.124 209.329 217.016 208.322 214.356 206.523C211.696 204.725 209.592 202.208 208.284 199.262C206.976 196.315 206.518 193.056 206.961 189.859C207.404 186.662 208.731 183.655 210.79 181.183C208.604 178.187 241.656 169.594 241.596 171.523Z" fill="black"/>
</g>
<g opacity="0.2">
<path d="M175.821 222.727C175.811 223.089 175.769 223.449 175.698 223.804C173.382 223.433 171.052 223.097 168.709 222.798C168.709 222.704 168.709 222.607 168.709 222.509C168.731 221.504 169.018 220.522 169.541 219.665C170.227 218.572 171.268 217.887 172.417 217.924C173.565 217.961 174.56 218.709 175.176 219.839C175.641 220.727 175.864 221.724 175.821 222.727Z" fill="#3F3D56"/>
<path d="M176.009 216.997C176.09 214.403 174.563 212.249 172.597 212.187C170.631 212.124 168.971 214.176 168.89 216.77C168.809 219.364 170.336 221.518 172.302 221.581C174.268 221.643 175.928 219.591 176.009 216.997Z" fill="#3F3D56"/>
<path d="M176.19 211.255C176.272 208.661 174.744 206.507 172.778 206.444C170.812 206.382 169.153 208.434 169.072 211.028C168.99 213.622 170.518 215.775 172.484 215.838C174.449 215.901 176.109 213.849 176.19 211.255Z" fill="#3F3D56"/>
<path d="M176.369 205.512C176.45 202.918 174.922 200.764 172.957 200.702C170.991 200.639 169.331 202.691 169.25 205.285C169.169 207.879 170.696 210.033 172.662 210.096C174.628 210.158 176.287 208.106 176.369 205.512Z" fill="#3F3D56"/>
<path d="M176.547 199.77C176.628 197.176 175.101 195.022 173.135 194.959C171.169 194.897 169.509 196.949 169.428 199.543C169.347 202.137 170.874 204.29 172.84 204.353C174.806 204.416 176.466 202.364 176.547 199.77Z" fill="#3F3D56"/>
<path d="M160.878 159.924C160.409 159.284 159.986 158.612 159.613 157.911L169.018 156.66L158.894 156.415C157.991 154.256 157.534 151.933 157.552 149.589C157.569 147.245 158.061 144.93 158.997 142.784L172.35 150.314L160.119 140.641C161.353 138.629 162.985 136.896 164.913 135.549C166.842 134.202 169.025 133.27 171.327 132.812C173.628 132.354 175.999 132.378 178.291 132.885C180.583 133.391 182.746 134.369 184.647 135.756C186.547 137.143 188.143 138.91 189.335 140.946C190.527 142.983 191.29 145.245 191.575 147.592C191.861 149.939 191.663 152.321 190.995 154.587C190.326 156.854 189.201 158.957 187.69 160.766C188.419 161.76 189.038 162.832 189.537 163.962L177.192 169.933L190.282 165.965C191.107 168.706 191.239 171.611 190.669 174.417C190.098 177.223 188.842 179.841 187.014 182.034C188.914 184.633 190.051 187.718 190.293 190.937C190.536 194.156 189.875 197.379 188.385 200.237C186.896 203.095 184.639 205.473 181.872 207.099C179.104 208.725 175.939 209.533 172.738 209.431C169.536 209.329 166.428 208.322 163.767 206.523C161.107 204.725 159.003 202.208 157.696 199.262C156.388 196.315 155.929 193.056 156.373 189.859C156.816 186.662 158.143 183.655 160.202 181.183C157.932 178.077 156.763 174.293 156.884 170.437C157.004 166.582 158.408 162.879 160.868 159.924H160.878Z" fill="#00C853"/>
<path opacity="0.1" d="M191.008 171.523C190.891 175.38 189.484 179.085 187.014 182.034C188.914 184.633 190.051 187.718 190.293 190.937C190.536 194.156 189.875 197.379 188.385 200.237C186.896 203.095 184.639 205.473 181.872 207.099C179.104 208.725 175.939 209.533 172.738 209.431C169.536 209.329 166.428 208.322 163.767 206.523C161.107 204.725 159.003 202.208 157.696 199.262C156.388 196.315 155.929 193.056 156.373 189.859C156.816 186.662 158.143 183.655 160.202 181.183C158.015 178.187 191.068 169.594 191.008 171.523Z" fill="black"/>
</g>
<g opacity="0.2">
<path d="M314.007 226.397C313.982 227.082 313.901 227.764 313.764 228.436C309.305 227.718 304.813 227.077 300.289 226.511C300.289 226.33 300.289 226.145 300.289 225.957C300.331 224.02 300.885 222.13 301.893 220.48C303.224 218.377 305.221 217.059 307.428 217.126C309.634 217.193 311.554 218.639 312.753 220.816C313.656 222.53 314.089 224.457 314.007 226.397Z" fill="#3F3D56"/>
<path d="M314.369 215.354C314.526 210.358 311.584 206.211 307.797 206.09C304.011 205.97 300.814 209.922 300.658 214.917C300.501 219.912 303.443 224.06 307.23 224.18C311.016 224.301 314.213 220.349 314.369 215.354Z" fill="#3F3D56"/>
<path d="M314.715 204.298C314.872 199.303 311.93 195.155 308.143 195.035C304.357 194.914 301.16 198.866 301.003 203.861C300.847 208.857 303.789 213.004 307.576 213.125C311.362 213.245 314.559 209.294 314.715 204.298Z" fill="#3F3D56"/>
<path d="M315.065 193.243C315.221 188.247 312.279 184.1 308.492 183.979C304.706 183.859 301.509 187.811 301.353 192.806C301.196 197.801 304.139 201.949 307.925 202.069C311.711 202.19 314.908 198.238 315.065 193.243Z" fill="#3F3D56"/>
<path d="M315.02 181.684C315.169 176.686 312.219 172.542 308.43 172.427C304.642 172.313 301.45 176.271 301.302 181.269C301.153 186.267 304.103 190.412 307.892 190.526C311.68 190.641 314.872 186.682 315.02 181.684Z" fill="#3F3D56"/>
<path d="M285.235 105.492C284.337 104.261 283.524 102.969 282.802 101.625L300.908 99.2165L281.421 98.7436C279.681 94.5861 278.8 90.1143 278.833 85.602C278.866 81.0897 279.813 76.6316 281.614 72.5005L307.324 86.9939L283.781 68.3715C286.161 64.5089 289.306 61.1817 293.018 58.5974C296.73 56.0132 300.931 54.2272 305.358 53.3507C309.786 52.4743 314.344 52.5262 318.751 53.5032C323.157 54.4802 327.317 56.3615 330.97 59.0296C334.624 61.6978 337.693 65.0957 339.986 69.0115C342.28 72.9274 343.748 77.2774 344.3 81.7903C344.852 86.3032 344.476 90.8824 343.195 95.2424C341.914 99.6024 339.756 103.65 336.855 107.132C338.257 109.049 339.45 111.113 340.413 113.287L316.647 124.789L341.844 117.141C343.432 122.412 343.691 127.999 342.597 133.396C341.502 138.793 339.09 143.83 335.577 148.05C339.235 153.053 341.422 158.992 341.889 165.188C342.355 171.385 341.082 177.589 338.215 183.09C335.348 188.592 331.002 193.169 325.675 196.299C320.348 199.429 314.255 200.985 308.092 200.789C301.929 200.593 295.945 198.653 290.824 195.192C285.703 191.73 281.652 186.886 279.135 181.213C276.617 175.54 275.734 169.268 276.587 163.113C277.44 156.959 279.994 151.17 283.957 146.41C279.589 140.431 277.34 133.147 277.572 125.727C277.803 118.306 280.502 111.178 285.235 105.489V105.492Z" fill="#00C853"/>
<path opacity="0.1" d="M343.246 127.818C343.027 135.24 340.33 142.371 335.591 148.057C339.249 153.059 341.436 158.999 341.902 165.195C342.369 171.392 341.095 177.595 338.228 183.097C335.361 188.598 331.015 193.176 325.689 196.306C320.362 199.436 314.268 200.992 308.105 200.796C301.942 200.6 295.958 198.66 290.837 195.198C285.717 191.736 281.666 186.892 279.148 181.22C276.631 175.547 275.748 169.275 276.6 163.12C277.453 156.966 280.007 151.177 283.971 146.417C279.731 140.644 343.362 124.105 343.246 127.818Z" fill="black"/>
</g>
<path d="M52.5254 226.987L56.0167 226.977H60.939L67.1627 125.084L128.797 21.4298L126.118 18.5318V11.1929L59.4613 122.682L52.5254 226.987Z" fill="#FFBF59"/>
<path opacity="0.1" d="M56.3894 226.977H60.939L67.1627 125.084L128.797 21.4298L126.118 18.5318L62.5432 123.531L56.3894 226.977Z" fill="#C45104"/>
<path d="M42.2379 227.836L201.941 240.152L202.077 240.162L356.635 230.583L356.751 230.576V223.999L186.448 220.849L44.3646 220.711H43.3262L43.2131 221.449L42.2379 227.836Z" fill="#CE953A"/>
<path opacity="0.1" d="M42.2379 227.836L201.941 240.152L202.077 240.162L356.635 230.583L356.751 230.455V224.136H356.615L201.941 229.342L44.3646 220.711H44.3413L44.0618 220.896L43.2131 221.449L42.2379 227.836Z" fill="#FFBF59"/>
<path opacity="0.1" d="M42.2379 227.836L201.941 240.152V229.342L44.0618 220.896L43.2131 221.449L42.2379 227.836Z" fill="#FFBF59"/>
<path d="M126.098 18.3943L196.506 94.5542L194.329 228.52L200.31 229.248L200.41 229.261H206.391L207.106 100.307L338.945 144.689L341.169 223.713L345.981 224.257L347.612 224.441L343.838 139.208L206.018 90.4454L130.448 11.27H126.098V18.3943Z" fill="#FFBF59"/>
<path opacity="0.1" d="M206.564 97.8413L207.106 100.307L338.945 144.689L341.169 223.713L345.981 224.257L342.207 143.046L206.564 97.8413Z" fill="#FF6600"/>
<path opacity="0.1" d="M126.098 18.3943L196.506 94.5542L194.329 228.52L200.31 229.248L201.941 90.1703L126.098 11.27V18.3943Z" fill="#C45104"/>
<path d="M206.82 151.605L255.175 161.202L255.192 161.205L339.884 178.02L343.761 176.453L343.748 176.178L343.495 170.728L206.87 142.905L206.82 151.605Z" fill="#FFBF59"/>
<path opacity="0.1" d="M255.192 161.205L339.884 178.02L343.761 176.453L343.748 176.178L255.192 161.205Z" fill="black"/>
<path d="M258.43 117.584L259.738 190.148L260.414 227.376L266.368 227.175L270.115 227.048L268.95 118.634L266.368 117.768L265.802 117.584H258.43Z" fill="#FFBF59"/>
<path opacity="0.1" d="M258.483 117.567V117.584L259.738 190.148L260.414 227.376L266.368 227.175V117.567H258.483Z" fill="#C45104"/>
<path d="M165.164 136.116C165.514 136.307 165.848 136.526 166.163 136.77C166.536 137.099 166.871 137.469 167.161 137.873C168.589 139.735 169.907 141.898 169.767 144.246C169.77 144.588 169.706 144.927 169.579 145.243C169.451 145.56 169.263 145.848 169.025 146.091C168.436 146.598 167.591 146.621 166.818 146.621C165.98 146.621 165.098 146.621 164.372 146.185C163.647 145.749 163.041 144.9 162.182 144.921C162.061 144.941 161.937 144.941 161.816 144.921C161.52 144.823 161.46 144.431 161.267 144.183C160.934 143.737 160.232 143.847 159.709 144.042C159.187 144.236 158.608 144.528 158.092 144.303C157.792 144.144 157.548 143.897 157.39 143.596C156.155 141.583 155.892 139.165 155.659 136.827C155.516 135.405 154.424 130.555 157.436 131.658C158.768 132.141 160.012 133.107 161.224 133.815L165.164 136.116Z" fill="#3F3D56"/>
<path d="M162.189 136.595C162.458 136.79 162.784 136.889 163.115 136.876C163.446 136.862 163.763 136.738 164.016 136.522C164.512 136.07 164.828 135.453 164.905 134.784C165.238 134.68 165.407 135.12 165.62 135.388C165.993 135.844 166.752 135.837 167.091 136.324C167.328 136.659 167.274 137.125 167.441 137.504C167.657 137.994 168.193 138.249 168.559 138.645C168.905 139.077 169.154 139.579 169.291 140.117L169.837 141.768C170.098 142.454 170.266 143.173 170.336 143.904C170.371 144.27 170.333 144.639 170.224 144.99C170.115 145.34 169.939 145.666 169.704 145.947C168.972 146.742 167.77 146.826 166.709 146.802C166.354 146.81 166 146.768 165.657 146.678C164.715 146.383 164.113 145.427 163.863 144.464C163.613 143.502 163.64 142.492 163.494 141.506C163.335 140.537 163.056 139.593 162.662 138.695C162.369 137.998 161.563 136.958 161.577 136.216C161.816 136.216 161.989 136.438 162.189 136.595Z" fill="#3F3D56"/>
<path d="M163.384 133.198C163.228 132.721 163.138 132.226 163.114 131.725C163.114 130.719 163.57 129.773 164.029 128.874L160.225 129.394C159.766 129.458 159.254 129.552 158.994 129.937C158.895 130.129 158.844 130.341 158.844 130.556C158.844 130.772 158.895 130.984 158.994 131.175C159.185 131.558 159.336 131.959 159.447 132.373C159.455 132.734 159.496 133.095 159.57 133.449C159.688 133.71 159.854 133.945 160.059 134.144C161.147 135.358 161.963 136.79 162.775 138.209C162.751 138.169 165.068 136.361 164.975 135.77C164.921 135.435 164.252 135.032 164.039 134.71C163.745 134.243 163.524 133.733 163.384 133.198Z" fill="#BE6F72"/>
<path d="M196 120.093V123.397L139.864 134.432L136.951 136.21H126.904V134.348L182.058 120.918L196 120.093Z" fill="#F1C0C0"/>
<path opacity="0.1" d="M196 123.397L139.864 134.432L136.951 136.21H126.904L182.468 124.225L196 123.397Z" fill="black"/>
<path d="M150.93 213.882C150.304 213.119 149.441 212.591 148.48 212.386C147.519 212.18 146.517 212.308 145.638 212.749C145.45 212.838 145.284 212.969 145.152 213.131C144.819 213.601 145.032 214.248 145.062 214.828C145.139 216.244 144.02 217.394 143.015 218.384C142.476 218.914 141.927 219.481 141.684 220.202C141.441 220.923 141.621 221.839 142.273 222.214C142.558 222.358 142.868 222.445 143.185 222.469C144.249 222.678 145.34 222.709 146.413 222.56C147.475 222.355 148.517 221.748 148.976 220.762C149.065 220.494 149.211 220.25 149.405 220.047C149.991 219.581 150.89 220.128 151.555 219.796C152.105 219.521 152.128 219.088 152.135 218.518C152.154 216.941 151.922 215.157 150.93 213.882Z" fill="#026BFF"/>
<path d="M158.917 213.822C159.327 214.909 159.383 216.093 159.437 217.253C159.467 217.924 159.486 218.642 159.127 219.209C158.768 219.776 158.065 220.074 157.393 220.215C156.005 220.504 154.398 220.232 153.502 219.122C152.817 218.273 152.674 217.109 152.8 216.009C152.907 215.107 153.133 214.05 152.491 213.409C152.324 213.238 152.108 213.118 151.955 212.933C151.622 212.524 151.675 211.907 151.855 211.404C152.089 210.923 152.264 210.415 152.377 209.891C152.404 209.643 156.884 210.065 157.297 210.27C157.859 210.548 157.772 211.015 157.942 211.578C158.179 212.363 158.631 213.071 158.917 213.822Z" fill="#026BFF"/>
<path d="M159.739 165.636C160.618 166.209 160.958 167.336 161.094 168.383C161.47 171.251 160.811 174.149 160.761 177.043C160.715 181.099 161.879 185.228 160.884 189.155C160.289 191.503 160.794 194.187 160.235 196.558C160.069 197.262 159.763 197.927 159.603 198.631C159.27 200.157 159.62 201.754 160.089 203.246C160.239 203.649 160.334 204.069 160.372 204.497C160.349 205.156 160.183 205.802 159.886 206.389L157.889 211.149C157.666 211.682 156.787 211.769 156.225 211.84C155.166 211.967 153.985 212.058 153.143 211.397C152.301 210.736 152.098 209.629 151.968 208.596C151.719 206.613 151.608 204.615 151.635 202.616C151.672 202.094 151.626 201.57 151.499 201.063C151.316 200.489 150.913 199.993 150.803 199.386C150.663 198.601 151.06 197.829 151.206 197.038C151.306 196.315 151.295 195.58 151.173 194.861C151.043 193.788 150.893 192.714 150.723 191.648C150.484 190.155 150.827 188.682 151.056 187.186C151.273 185.781 150.996 184.349 150.723 182.954C150.747 184.086 150.607 185.216 150.307 186.308C150.131 186.841 149.878 187.351 149.725 187.894C149.043 190.333 150.497 192.892 150.291 195.418C150.194 196.598 149.735 197.766 149.865 198.929C149.955 199.781 150.347 200.563 150.617 201.375C150.886 202.186 151.026 203.115 150.617 203.874C149.535 205.933 150.344 208.734 151.312 210.847C151.509 211.222 151.68 211.609 151.825 212.007C152.111 212.96 151.872 213.983 151.948 214.976C151.669 215.022 151.384 215.003 151.113 214.921C150.843 214.839 150.595 214.696 150.387 214.503C150.241 214.349 150.121 214.167 149.978 214.006C149.578 213.622 149.105 213.325 148.587 213.131C148.283 212.96 147.936 212.879 147.588 212.9C147.222 213.003 146.893 213.209 146.64 213.493C146.311 213.785 145.961 214.053 145.595 214.295C145.438 214.416 145.256 214.498 145.062 214.533C144.965 214.548 144.865 214.532 144.777 214.487C144.689 214.442 144.618 214.37 144.573 214.282C144.552 214.226 144.54 214.167 144.536 214.107C144.413 213.094 144.347 212.075 144.34 211.055C144.34 209.301 142.256 208.093 141.994 206.359C141.784 204.96 142.173 203.535 142.043 202.126C141.98 201.401 141.781 200.69 141.794 199.966C141.794 199.496 141.9 199.037 141.937 198.571C141.967 198.053 141.96 197.534 141.914 197.018L141.81 195.398C141.711 193.798 141.601 192.164 140.975 190.702C140.233 188.994 139.794 187.169 139.677 185.308C139.611 184.134 139.654 182.96 139.521 181.783C139.401 180.72 139.135 179.663 139.211 178.596C139.274 177.771 139.544 176.973 139.607 176.148C139.737 174.561 139.138 173.018 138.669 171.499C138.199 169.98 137.853 168.296 138.469 166.83C138.557 166.589 138.703 166.375 138.895 166.206C139.131 166.049 139.4 165.948 139.68 165.911C145.391 164.702 151.244 164.326 157.06 164.794C158.008 164.848 158.929 165.137 159.739 165.636Z" fill="#3F3D56"/>
<path d="M140.845 130.011C143.79 130.011 146.177 127.605 146.177 124.638C146.177 121.67 143.79 119.264 140.845 119.264C137.901 119.264 135.514 121.67 135.514 124.638C135.514 127.605 137.901 130.011 140.845 130.011Z" fill="#BE6F72"/>
<path d="M139.814 131.35C139.89 131.657 139.89 131.978 139.814 132.285C139.73 132.5 139.612 132.699 139.464 132.876C138.948 133.547 138.377 134.173 137.757 134.747C138.073 135.458 138.642 136.024 139.351 136.334C140.056 136.636 140.794 136.849 141.551 136.968C141.929 137.068 142.322 137.095 142.709 137.048C143.066 136.958 143.405 136.803 143.708 136.592L146.67 134.804C147.117 134.56 147.531 134.259 147.901 133.909C148.444 133.346 148.752 132.594 148.76 131.809C148.774 131.668 148.736 131.528 148.653 131.413C148.54 131.314 148.397 131.254 148.247 131.242C147.206 131.011 146.383 130.159 145.918 129.193C145.496 128.203 145.224 127.155 145.109 126.083L141.95 127.761C141.481 128.012 141.015 128.264 140.529 128.482C140.22 128.623 139.594 128.74 139.374 129.025C138.955 129.552 139.704 130.716 139.814 131.35Z" fill="#BE6F72"/>
<path d="M137.777 133.771C137.327 134.143 136.976 134.621 136.755 135.163C136.549 135.834 136.755 136.542 136.941 137.206C137.815 140.037 138.482 142.928 138.938 145.856C139.218 147.869 139.321 149.912 139.458 151.948C139.737 156.1 140.143 162.721 140.686 166.847C142.683 166.937 144.63 166.35 146.61 166.136C150.311 165.74 154.122 166.646 157.746 165.8C156.867 162.302 155.989 156.328 155.11 152.833C154.721 151.456 154.452 150.048 154.305 148.624C154.228 147.601 154.275 146.574 154.288 145.544C154.318 143.532 154.208 141.519 154.098 139.507C153.972 137.159 153.845 134.811 153.293 132.513C153.254 132.221 153.118 131.95 152.907 131.745C152.574 131.5 152.141 131.588 151.745 131.641C150.533 131.797 149.305 131.503 148.291 130.816C147.851 130.514 147.262 130.145 146.853 130.481C146.678 130.683 146.563 130.931 146.52 131.195C146.339 131.67 146.059 132.1 145.7 132.457C145.341 132.814 144.91 133.089 144.437 133.265C143.488 133.611 142.495 133.817 141.488 133.875C141.18 133.942 140.858 133.905 140.572 133.771C140.1 133.479 140.067 132.43 139.471 132.359C138.948 132.299 138.13 133.432 137.777 133.771Z" fill="#3F3D56"/>
<path d="M145.651 141.962C144.423 140.778 143.884 139.061 142.989 137.602C142.379 136.621 141.6 135.757 140.689 135.053C140.231 134.748 139.811 134.388 139.438 133.983C139.121 133.59 138.882 133.067 138.403 132.916C138.204 132.872 137.999 132.878 137.804 132.933C137.608 132.987 137.429 133.088 137.281 133.228C136.988 133.51 136.71 133.807 136.449 134.12C135.038 135.593 132.558 135.797 131.44 137.501C131.138 137.862 130.933 138.295 130.844 138.759C130.522 141.239 131.159 143.749 132.621 145.769C132.905 146.237 133.34 146.593 133.853 146.775C133.783 147.401 133.866 148.034 134.093 148.62C134.709 150.743 135.466 152.822 136.359 154.842C136.145 155.632 135.996 156.439 135.913 157.254C135.68 159.303 135.896 161.383 135.677 163.436C135.497 165.113 135.011 166.746 134.994 168.427C134.994 168.695 135.018 169.014 135.247 169.151C135.37 169.214 135.506 169.243 135.643 169.235L139.737 169.359C142.113 169.429 144.513 169.5 146.853 169.057C147.164 169.011 147.467 168.914 147.748 168.772C148.54 168.326 148.803 167.32 148.93 166.424C149.095 165.262 149.16 164.089 149.126 162.916C149.622 164.495 150.211 166.129 151.709 166.813C152.501 167.175 153.406 167.149 154.275 167.125C156.147 167.041 158.013 166.847 159.863 166.545C159.977 166.559 160.092 166.546 160.201 166.507C160.309 166.468 160.406 166.405 160.486 166.321C160.565 166.237 160.624 166.136 160.657 166.025C160.69 165.914 160.698 165.797 160.678 165.683L160.698 163.851C160.738 160.132 159.823 156.576 159.467 152.873C159.353 151.706 159.363 150.525 159.081 149.382C158.964 148.902 158.794 148.432 158.691 147.949C158.602 147.476 158.547 146.998 158.525 146.517L158.265 142.828C158.142 141.12 157.966 139.473 157.836 137.769C157.764 136.11 157.526 134.463 157.124 132.852C156.834 131.846 156.232 130.706 155.19 130.581C154.634 130.518 154.095 130.763 153.566 130.934C152.265 131.346 150.869 131.34 149.572 130.917C149.171 130.757 148.753 130.645 148.327 130.581C148.113 130.552 147.894 130.581 147.694 130.664C147.494 130.748 147.32 130.884 147.189 131.058C147.06 131.32 146.999 131.611 147.013 131.903C146.856 135.254 146.567 138.705 145.651 141.962Z" fill="#026BFF"/>
<path d="M140.296 142.063C138.762 140.433 137.188 138.772 135.211 137.736C134.432 137.327 133.547 137.018 132.685 137.172C131.823 137.327 131.021 138.081 131.061 138.964C131.087 139.51 131.417 139.993 131.52 140.53C131.64 141.134 131.467 141.778 131.653 142.361C131.804 142.746 132.031 143.096 132.319 143.391L134.675 146.205C135.673 147.379 136.672 148.57 137.957 149.382C139.241 150.193 140.905 150.572 142.316 149.995C143.32 149.525 144.155 148.753 144.706 147.785C145.292 146.846 145.705 145.819 146.254 144.85C147.108 143.301 148.236 141.922 149.582 140.781C148.89 140.6 148.021 140.345 147.585 139.775C147.461 139.594 147.355 139.401 147.269 139.198L146.73 138.024C146.546 138.015 146.363 138.043 146.191 138.109C146.019 138.174 145.863 138.274 145.731 138.403C145.5 138.673 145.252 138.927 144.989 139.165C144.52 139.52 143.884 139.618 143.458 140.023C143.293 140.198 143.144 140.386 143.012 140.587C142.69 141.014 142.281 141.366 141.812 141.621C141.344 141.875 140.827 142.026 140.296 142.063Z" fill="#3F3D56"/>
<path d="M149.705 135.049C150.86 132.926 150.807 130.38 151.136 127.982C151.172 127.347 151.393 126.737 151.772 126.228C152.437 125.47 153.612 125.46 154.617 125.557C154.914 125.59 155.283 125.731 155.266 126.03C155.243 126.137 155.191 126.235 155.117 126.315C154.142 127.582 153.569 129.116 153.472 130.716C153.995 131.081 154.804 130.33 155.306 130.716C155.639 130.997 155.486 131.554 155.286 131.957C154.823 132.889 154.344 133.815 153.852 134.734C153.459 135.544 152.946 136.289 152.331 136.944C151.908 137.354 151.412 137.676 150.983 138.078C149.985 139.021 149.382 140.352 148.35 141.271C148.263 141.366 148.145 141.427 148.018 141.442C147.886 141.433 147.763 141.377 147.668 141.285C147.153 140.862 146.725 140.341 146.41 139.752C146.017 139.021 146.077 138.806 146.696 138.289C147.854 137.367 148.983 136.377 149.705 135.049Z" fill="#BE6F72"/>
<path d="M138.366 140.62C138.566 140.745 138.812 140.885 139.031 140.781C139.121 140.727 139.197 140.652 139.254 140.563C139.635 140.052 139.952 139.495 140.2 138.907C140.242 138.823 140.266 138.732 140.27 138.638C140.27 138.424 140.08 138.266 139.903 138.142C138.958 137.535 137.942 137.048 136.878 136.693C135.999 136.357 135.081 136.066 134.149 136.149C133.799 136.173 133.457 136.268 133.144 136.428C132.831 136.588 132.554 136.811 132.329 137.082C131.663 137.944 132.778 138.205 133.477 138.517C135.094 139.259 136.845 139.688 138.366 140.62Z" fill="#026BFF"/>
<path opacity="0.1" d="M137.318 146.323C137.306 146.399 137.313 146.477 137.337 146.551C137.362 146.624 137.403 146.691 137.457 146.745C137.554 146.269 137.427 145.766 137.527 145.286C137.674 144.565 138.369 144.022 138.429 143.297C137.154 143.046 137.328 145.544 137.318 146.323Z" fill="black"/>
<path opacity="0.2" d="M196 120.093V123.397L182.468 124.225L182.058 120.918L196 120.093Z" fill="black"/>
<path d="M136.046 125.436C136.891 124.742 136.402 123.286 136.975 122.354C137.307 121.844 137.87 121.575 138.422 121.347C139.089 121.033 139.804 120.833 140.536 120.757C140.903 120.722 141.272 120.77 141.618 120.898C141.964 121.026 142.276 121.232 142.533 121.498C142.749 121.747 142.896 122.048 143.099 122.307C143.35 122.608 143.678 122.835 144.047 122.964C144.416 123.093 144.813 123.118 145.195 123.038C145.638 122.937 146.097 122.598 146.067 122.142C146.017 121.865 145.877 121.612 145.668 121.425L144.716 120.361C143.634 119.154 142.433 117.872 140.845 117.571C139.74 117.359 138.609 117.658 137.544 118.017C137.114 118.161 136.632 118.376 136.512 118.815C136.432 119.117 136.552 119.446 136.482 119.751C136.346 120.358 135.573 120.563 135.214 121.072C134.855 121.582 134.964 122.186 134.861 122.749C134.758 123.313 134.459 123.863 134.422 124.447C134.399 124.799 134.575 125.453 134.968 125.58C135.36 125.708 135.803 125.017 136.046 125.436Z" fill="#3F3D56"/>
<path d="M145.744 121.659C145.464 120.184 144.859 118.79 143.974 117.581C143.187 116.451 142.092 115.575 140.822 115.058C140.187 114.808 139.504 114.706 138.825 114.76C138.145 114.814 137.486 115.023 136.898 115.37C136.025 115.998 135.345 116.862 134.938 117.862C134.076 119.734 133.756 122.022 134.758 123.819C135.157 123.33 135.843 123.551 136.449 123.373C137.208 123.155 137.85 122.645 138.572 122.327C140.752 121.357 143.415 122.142 145.744 121.659Z" fill="#FFFF00"/>
<path opacity="0.1" d="M135.267 121.555C135.191 120.952 135.141 120.251 135.567 119.821C135.588 119.795 135.615 119.774 135.646 119.76C135.676 119.746 135.71 119.739 135.743 119.741C135.773 119.75 135.8 119.766 135.824 119.787C135.847 119.808 135.866 119.833 135.88 119.861C136.126 120.253 136.335 120.666 136.505 121.096C136.257 121.038 135.998 121.057 135.76 121.15C135.523 121.242 135.319 121.405 135.174 121.616" fill="black"/>
<path opacity="0.1" d="M143.045 119.851L142.926 118.654C142.906 118.555 142.914 118.453 142.949 118.359C142.999 118.28 143.076 118.222 143.166 118.198C143.256 118.173 143.352 118.182 143.435 118.225C143.598 118.316 143.733 118.452 143.824 118.617C144.101 119.046 144.331 119.503 144.51 119.982C143.974 119.878 143.422 119.885 142.889 120.002" fill="black"/>
<path opacity="0.1" d="M146.024 168.45V171.187L143.731 171.341H131.67V168.45H146.024Z" fill="black"/>
<path d="M146.024 168.45V171.341H131.67L93.5353 123.199V120.925H101.53L146.024 168.45Z" fill="#F1C0C0"/>
<path opacity="0.1" d="M146.024 168.45V171.341H131.67L93.5353 123.199V120.925H101.53L146.024 168.45Z" fill="black"/>
<path opacity="0.1" d="M146.024 168.45V171.341H131.67L93.5353 123.199V120.925L131.876 168.45H146.024Z" fill="black"/>
<path d="M98.5342 216.703C98.5593 216.839 98.5562 216.979 98.5253 217.114C98.4943 217.249 98.4361 217.376 98.3543 217.487C98.2724 217.598 98.1687 217.691 98.0497 217.76C97.9306 217.829 97.7987 217.872 97.6622 217.887C96.737 218.203 95.7551 218.514 95.0995 219.229C94.4438 219.943 94.314 221.268 95.0995 221.849C95.501 222.093 95.9619 222.219 96.4308 222.214C97.9384 222.318 99.5093 222.298 100.877 221.654C101.856 221.198 102.778 220.42 103.853 220.49C104.408 220.524 105.001 220.785 105.497 220.53C105.993 220.275 106.132 219.564 106.136 218.971C106.148 217.731 105.963 216.498 105.587 215.318C105.537 215.157 103.42 215.033 103.167 214.983L100.601 214.647C100.115 214.583 99.0667 214.214 98.6839 214.624C98.3012 215.033 98.5342 216.217 98.5342 216.703Z" fill="#026BFF"/>
<path d="M113.847 208.331C113.956 208.935 114.132 209.525 114.373 210.089C114.729 211.001 115.185 211.971 116.057 212.413C116.849 212.812 117.821 212.668 118.626 212.289C118.963 212.149 119.257 211.924 119.482 211.635C119.742 211.179 119.858 210.653 119.815 210.129C119.815 208.831 119.738 207.489 119.149 206.336C118.643 205.329 117.761 204.464 117.748 203.35L114.716 203.941C114.554 203.956 114.399 204.018 114.27 204.118C114.174 204.22 114.107 204.347 114.077 204.484C113.753 205.739 113.675 207.046 113.847 208.331Z" fill="#026BFF"/>
<path d="M77.6398 176.467C77.5133 177.547 77.5666 178.704 78.1257 179.636C78.6849 180.569 79.863 181.186 80.8815 180.814C80.9336 180.8 80.9826 180.776 81.0255 180.743C81.0684 180.711 81.1043 180.669 81.1311 180.622C81.1582 180.509 81.1428 180.39 81.0878 180.287C80.6382 179.078 80.6752 177.739 81.191 176.557C81.2575 176.403 81.4007 176.222 81.5571 176.282C81.6225 176.315 81.6752 176.37 81.7069 176.436C81.868 176.717 81.9486 177.038 81.9398 177.362C81.8928 177.656 81.8839 177.955 81.9132 178.251C81.9764 178.539 82.2826 178.811 82.5489 178.687C82.6259 178.639 82.6924 178.576 82.7445 178.502C82.7965 178.428 82.833 178.343 82.8517 178.254C83.5939 176.091 83.2578 173.726 82.9183 171.462C82.9212 171.41 82.9126 171.358 82.8933 171.31C82.874 171.262 82.8445 171.218 82.8067 171.183C82.7689 171.147 82.7239 171.12 82.6747 171.104C82.6256 171.088 82.5735 171.083 82.5223 171.09C80.9514 170.932 80.0927 170.553 79.1941 172.026C78.4219 173.267 77.6398 174.974 77.6398 176.467Z" fill="#026BFF"/>
<path d="M96.0047 170.962C95.5388 172.914 95.0695 174.89 95.0396 176.896C95.0477 178.145 95.1411 179.393 95.3191 180.629L95.6686 183.534C95.7884 184.513 95.9049 185.489 96.0746 186.459C96.1829 186.958 96.242 187.467 96.251 187.978C96.2184 188.482 96.1393 188.982 96.0147 189.471C95.8054 190.498 95.6885 191.542 95.6653 192.59C95.6286 194.267 95.835 195.944 95.9648 197.621C96.2239 200.963 96.1849 204.322 95.8483 207.657C95.7139 208.557 95.9078 209.476 96.3941 210.243C96.5915 210.485 96.7539 210.754 96.8767 211.041C97.1263 211.81 96.5439 212.578 96.3941 213.366C96.2983 213.98 96.4485 214.608 96.8117 215.111C97.1749 215.615 97.7214 215.952 98.3311 216.049C100.994 216.368 103.729 216.224 106.129 217.451C106.382 216.707 105.83 215.861 106.082 215.103C106.242 214.634 106.682 214.328 106.981 213.933C107.383 213.33 107.584 212.613 107.554 211.887C107.565 210.939 107.398 209.998 107.061 209.113C106.778 208.375 106.372 207.647 106.395 206.855C106.395 206.466 106.532 206.057 106.375 205.698C106.268 205.492 106.122 205.309 105.946 205.158C104.951 204.06 104.34 202.664 104.205 201.183C104.076 199.714 104.123 198.234 104.345 196.776C104.508 195.387 104.728 193.922 105.603 192.838C105.197 189.553 105.436 186.22 106.305 183.027C106.392 182.732 106.528 182.39 106.828 182.32C106.947 182.307 107.067 182.324 107.178 182.368C107.29 182.413 107.389 182.483 107.467 182.575C107.99 183.068 108.239 183.782 108.465 184.466C108.715 185.208 108.968 185.999 108.778 186.757C108.698 187.093 108.539 187.388 108.445 187.71C108.243 188.357 108.278 189.056 108.545 189.679C108.675 189.906 108.757 190.159 108.785 190.42C108.754 190.644 108.687 190.862 108.585 191.064C108.462 191.461 108.423 191.879 108.47 192.293C108.518 192.706 108.651 193.104 108.861 193.462C109.286 194.174 109.809 194.822 110.416 195.384C110.126 196.671 110.201 198.015 110.632 199.262C110.663 199.318 110.683 199.379 110.69 199.443C110.698 199.507 110.693 199.572 110.675 199.634C110.615 199.761 110.462 199.808 110.343 199.899C110.01 200.174 110.216 200.694 110.439 201.053C111.05 202.038 111.725 202.981 112.459 203.877C113.125 204.679 113.065 206.225 114.057 206.513C114.474 206.604 114.905 206.604 115.321 206.513C116.3 206.362 117.392 206.077 117.871 205.205C118.067 204.846 118.147 204.41 118.453 204.142C118.76 203.874 119.156 203.827 119.325 203.505C119.495 203.183 119.305 202.76 119.362 202.388C119.418 202.015 119.741 201.717 119.844 201.324C120.091 200.419 119.042 199.674 118.899 198.748C118.693 197.407 120.37 196.4 120.3 195.059C120.154 192.144 120.061 189.216 119.911 186.301C119.723 183.69 119.696 181.07 119.831 178.456C119.948 176.829 120.164 175.125 119.572 173.612C118.72 171.479 116.37 170.281 114.097 170.053C111.824 169.825 109.557 170.369 107.304 170.724C103.564 171.305 99.7651 171.385 96.0047 170.962Z" fill="#3F3D56"/>
<path d="M102.761 138.903C105.706 138.903 108.093 136.497 108.093 133.53C108.093 130.562 105.706 128.156 102.761 128.156C99.8163 128.156 97.4292 130.562 97.4292 133.53C97.4292 136.497 99.8163 138.903 102.761 138.903Z" fill="#FBBEBE"/>
<path d="M100.591 139.906C100.41 140.331 100.105 140.691 99.7173 140.938C99.3294 141.185 98.8763 141.309 98.4176 141.291C98.2246 142.096 98.6872 142.908 99.2164 143.542C100.315 144.831 101.735 145.801 103.33 146.352C104.925 146.903 106.637 147.016 108.289 146.678C108.932 146.562 109.542 146.306 110.076 145.927C110.796 145.321 111.28 144.477 111.441 143.545C111.594 142.62 111.638 141.68 111.571 140.745C111.589 140.56 111.537 140.375 111.424 140.228C111.291 140.124 111.127 140.07 110.958 140.074C109.833 139.973 108.658 139.93 107.67 139.373C106.682 138.816 105.979 137.558 106.455 136.525C106.379 136.686 104.435 136.763 104.179 136.797C103.377 136.911 102.575 137.038 101.776 137.186C101.392 137.207 101.013 137.279 100.648 137.4C100.165 137.652 100.345 137.528 100.458 137.984C100.628 138.682 100.877 139.182 100.591 139.906Z" fill="#FBBEBE"/>
<path d="M104.648 143.173C103.93 143.181 103.214 143.101 102.515 142.935C101.809 142.769 101.187 142.35 100.764 141.758C100.518 141.382 100.358 140.909 99.9653 140.698C99.323 140.362 98.5908 140.929 98.0782 141.449C97.6116 141.962 97.0707 142.4 96.474 142.75C95.7618 143.129 94.9298 143.264 94.2575 143.71C93.7323 144.11 93.2815 144.6 92.9262 145.159L88.2102 151.632C86.3164 154.235 84.669 157.029 82.9816 159.776C81.5205 162.154 80.755 164.891 79.6534 167.457C79.5661 167.614 79.5301 167.795 79.5502 167.974C79.5902 168.148 79.7998 168.289 79.9463 168.188C79.4504 168.685 79.8864 169.53 79.7699 170.228C79.6375 170.716 79.3613 171.152 78.9778 171.479C79.7103 171.383 80.454 171.418 81.1744 171.583C81.9189 171.796 82.6214 172.136 83.2512 172.589C83.6539 172.525 83.6173 171.804 83.9168 171.536C84.0965 171.378 84.3628 171.398 84.5991 171.351C85.4877 171.177 85.8405 170.1 86.5228 169.493C87.0919 168.987 87.8973 168.822 88.4997 168.346C89.4782 167.571 89.6879 166.193 90.2004 165.049C90.6364 164.08 91.322 163.234 91.7048 162.242C91.9544 161.598 92.0742 160.9 92.4303 160.306C92.9994 159.347 94.0711 158.837 95.0928 158.378C95.7385 158.086 96.4241 157.784 97.1197 157.831C97.0831 159.39 96.8867 160.927 97.2229 162.449C97.3394 162.986 97.5024 163.509 97.6422 164.043C98.2779 166.444 98.4277 168.947 98.4576 171.422C99.9868 171.069 101.549 170.88 103.117 170.858C104.352 170.822 105.583 170.983 106.818 170.959C108.282 170.932 109.73 170.647 111.195 170.546C112.659 170.446 114.19 170.546 115.485 171.217C115.379 169.092 115.438 166.961 115.661 164.844L116.014 161.51C116.093 160.542 116.241 159.58 116.456 158.632C116.649 157.868 116.929 157.13 117.142 156.368C117.891 153.685 117.754 150.821 117.611 148.027C117.538 146.591 116.989 145.179 116.343 143.901C116.11 143.426 115.843 142.969 115.545 142.532C114.764 141.449 113.724 140.582 112.522 140.013C111.32 139.445 109.994 139.192 108.669 139.279C108.499 139.284 108.332 139.32 108.176 139.386C107.895 139.567 107.676 139.831 107.547 140.141C106.858 141.388 105.859 142.433 104.648 143.173Z" fill="#3F3D56"/>
<path d="M98.0715 135.311C98.2213 134.975 98.624 134.851 98.8703 134.583C99.3429 134.073 99.1299 133.258 99.2031 132.57C99.3229 131.564 100.152 130.722 101.1 130.363C102.067 130.051 103.097 129.985 104.096 130.172C104.576 130.208 105.041 130.363 105.447 130.625C105.62 130.752 105.78 130.917 105.943 131.034C106.24 131.215 106.596 131.272 106.934 131.193C107.272 131.113 107.566 130.903 107.753 130.608C106.575 129.179 105.27 127.67 103.48 127.231C102.866 127.104 102.24 127.045 101.613 127.053C100.784 127.036 99.9286 127.023 99.1632 127.341C98.1214 127.774 97.3892 128.77 97.0131 129.844C96.6843 130.931 96.5084 132.061 96.4906 133.198C96.4224 133.956 96.4224 134.72 96.4906 135.479C96.6193 136.515 97.0013 137.502 97.6022 138.353C97.6835 138.485 97.7984 138.593 97.9351 138.665C99.4527 139.336 97.9484 135.589 98.0715 135.311Z" fill="#3F3D56"/>
<path d="M107.58 129.78C107.397 128.2 106.279 126.895 105.091 125.845C104.133 124.935 102.992 124.243 101.746 123.816C100.491 123.444 99.0467 123.524 97.9717 124.279C97.1063 124.886 96.5572 125.852 96.1345 126.825C95.5792 127.973 95.3042 129.238 95.3324 130.514C95.4156 131.782 96.028 133.067 97.1196 133.708C97.5124 133.124 98.1947 132.822 98.8503 132.584C101.708 131.491 104.622 130.555 107.58 129.78Z" fill="#FFFF00"/>
<path opacity="0.1" d="M97.4858 129.122C97.5923 129.122 97.6621 129.233 97.7154 129.324C97.9864 129.749 98.2192 130.198 98.411 130.665C98.0216 130.749 97.3526 130.843 97.1596 130.498C97.0564 130.323 97.1796 129.106 97.4858 129.122Z" fill="black"/>
<path opacity="0.1" d="M105.071 128.364C104.991 128.441 104.898 128.284 104.898 128.17V126.868C104.896 126.832 104.904 126.796 104.921 126.764C104.935 126.748 104.952 126.736 104.97 126.726C104.989 126.717 105.01 126.712 105.031 126.711C105.3 126.681 105.523 126.912 105.696 127.133C105.959 127.492 106.188 127.875 106.379 128.277L104.971 128.234" fill="black"/>
<path d="M122.64 149.915C122.947 149.622 123.274 149.352 123.619 149.107C124.541 148.486 125.656 148.241 126.691 147.845C127.726 147.45 128.777 146.809 129.18 145.769C129.382 145.119 129.447 144.434 129.373 143.757C129.383 143.473 129.333 143.191 129.227 142.928C129.1 142.696 128.92 142.498 128.701 142.351C127.296 141.305 125.413 141.221 123.669 141.328C119.824 141.569 116.055 142.517 112.549 144.126C112.364 144.187 112.201 144.304 112.083 144.461C112.015 144.606 111.984 144.767 111.993 144.927C111.931 145.916 112.059 146.908 112.369 147.849C112.829 149.043 113.774 150.005 114.17 151.223C114.35 151.77 114.41 152.35 114.566 152.9C114.694 153.468 115.028 153.968 115.501 154.302C116.816 155.094 118.057 154.03 118.969 153.205L122.64 149.915Z" fill="#3F3D56"/>
<path d="M105.424 154.56L103.736 150.851C103.489 150.337 103.275 149.807 103.097 149.264C102.904 148.617 102.811 147.946 102.631 147.295C102.039 145.128 100.544 143.324 99.8155 141.201C99.7694 141.009 99.6755 140.832 99.5426 140.688C99.4362 140.612 99.3146 140.56 99.1863 140.537C99.0581 140.514 98.9263 140.52 98.8004 140.553C97.782 140.731 96.9866 141.513 96.0547 141.955C95.622 142.157 95.1561 142.291 94.7234 142.522C94.5071 142.626 94.3155 142.775 94.1616 142.959C94.0076 143.144 93.895 143.36 93.8314 143.592C93.7283 144.105 93.9812 144.599 94.1942 145.098C95.0995 147.158 95.3058 149.459 95.3458 151.713C95.3757 153.229 95.2992 154.856 94.4106 156.073C92.7032 158.421 93.7948 161.869 94.4338 164.71C94.5104 165.046 94.6003 165.408 94.6535 165.763C94.7098 166.208 94.7354 166.657 94.7301 167.105C94.7301 168.611 94.6468 170.164 94.0212 171.529C94.6389 171.86 95.3197 172.055 96.0181 172.099C97.9506 172.348 99.891 172.522 101.839 172.623C102.449 172.681 103.065 172.649 103.666 172.529C104.38 172.334 105.01 171.905 105.455 171.31C105.901 170.715 106.137 169.987 106.126 169.242C106.232 170.171 106.429 171.18 107.098 171.824C107.767 172.468 108.742 172.566 109.65 172.616C112.215 172.753 114.786 172.68 117.338 172.398C117.501 172.391 117.662 172.353 117.811 172.287C118.304 172.039 118.33 171.355 118.29 170.805C118.217 169.775 118.14 168.745 118.017 167.722C117.913 167.07 117.86 166.411 117.858 165.75C117.908 165.07 118.02 164.397 118.19 163.737C118.636 161.644 118.989 159.508 118.839 157.365C118.78 156.842 118.759 156.317 118.776 155.791C118.863 154.607 119.482 153.48 119.365 152.303C119.032 148.842 118.763 145.289 117.804 141.949C117.631 141.352 117.412 140.711 116.896 140.369C116.23 139.919 115.295 140.154 114.533 139.869C114.175 139.701 113.835 139.498 113.518 139.262C112.828 138.827 112.037 138.582 111.225 138.551C110.612 138.527 109.93 138.665 109.56 139.161C109.389 139.441 109.276 139.752 109.228 140.077C108.745 142.123 108.179 144.146 107.613 146.168L107.071 148.107L105.617 153.313C105.473 153.866 105.57 154.037 105.424 154.56Z" fill="#026BFF"/>
<path d="M113.934 134.251L146.127 168.346V171.237H131.773L107.58 139.416" fill="#F1C0C0"/>
<path opacity="0.1" d="M113.934 134.251L146.127 168.346V171.237H131.773L107.58 139.416" fill="black"/>
<path opacity="0.1" d="M108.093 138.967L108.196 139.004L131.979 168.346H146.127V171.237H131.773L107.58 139.416L108.093 138.967Z" fill="black"/>
<path d="M111.797 139.685C110.632 140.198 109.337 140.855 108.988 142.09C108.919 142.306 108.904 142.537 108.945 142.76C109.03 143.024 109.192 143.255 109.41 143.423C109.628 143.591 109.892 143.689 110.166 143.703C110.714 143.716 111.259 143.616 111.767 143.408L118.64 141.12C118.826 141.06 119.039 140.969 119.086 140.785C119.098 140.669 119.074 140.552 119.019 140.449C118.806 139.926 118.596 138.856 118.15 138.491C117.784 138.195 117.059 138.299 116.616 138.306C114.912 138.32 113.311 139.014 111.797 139.685Z" fill="#6C63FF"/>
<path d="M117.924 141.392C119.082 141.389 120.233 141.569 121.336 141.925C122.443 142.288 123.424 142.963 124.161 143.871C124.376 144.124 124.529 144.425 124.607 144.749C124.674 145.085 125.759 145.286 125.519 145.514C126.248 145.397 126.075 145.742 126.814 145.736C127.553 145.729 128.351 145.538 128.794 144.944C129.102 144.456 129.239 143.879 129.183 143.304C129.193 142.906 129.118 142.51 128.964 142.143C128.631 141.439 127.865 141.06 127.16 140.735L121.216 137.994C120.871 137.809 120.501 137.677 120.117 137.602C119.795 137.571 119.47 137.579 119.149 137.625L116.456 137.937C117.045 138.321 117.525 138.853 117.847 139.481C118.17 140.108 118.325 140.81 118.297 141.516" fill="#3F3D56"/>
</g>
<defs>
<clipPath id="clip0_9_2">
<rect width="392" height="243" fill="white"/>
</clipPath>
</defs>
</svg>
